<?xml version="1.0" encoding="UTF-8" standalone="no"?>
<!-- Created with Inkscape (http://www.inkscape.org/) -->
<svg
   xmlns:dc="http://purl.org/dc/elements/1.1/"
   xmlns:cc="http://web.resource.org/cc/"
   xmlns:rdf="http://www.w3.org/1999/02/22-rdf-syntax-ns#"
   xmlns:svg="http://www.w3.org/2000/svg"
   xmlns="http://www.w3.org/2000/svg"
   xmlns:sodipodi="http://inkscape.sourceforge.net/DTD/sodipodi-0.dtd"
   xmlns:inkscape="http://www.inkscape.org/namespaces/inkscape"
   width="200"
   height="125"
   id="svg2"
   sodipodi:version="0.32"
   inkscape:version="0.43"
   version="1.0"
   sodipodi:docbase="C:\Documents and Settings\Julian\My Documents\My Pictures\Electronics\Vector Illustrations\ICs"
   sodipodi:docname="Pinout Template 8 Pin.svg">
  <defs
     id="defs4" />
  <sodipodi:namedview
     id="base"
     pagecolor="#ffffff"
     bordercolor="#666666"
     borderopacity="1.0"
     inkscape:pageopacity="0.0"
     inkscape:pageshadow="2"
     inkscape:zoom="2.725"
     inkscape:cx="104.93042"
     inkscape:cy="48.706927"
     inkscape:document-units="px"
     inkscape:current-layer="layer1"
     showgrid="true"
     inkscape:grid-bbox="true"
     inkscape:grid-points="true"
     gridspacingx="5px"
     gridspacingy="5px"
     gridtolerance="5px"
     inkscape:window-width="1024"
     inkscape:window-height="712"
     inkscape:window-x="-4"
     inkscape:window-y="-4" />
  <metadata
     id="metadata7">
    <rdf:RDF>
      <cc:Work
         rdf:about="">
        <dc:format>image/svg+xml</dc:format>
        <dc:type
           rdf:resource="http://purl.org/dc/dcmitype/StillImage" />
      </cc:Work>
    </rdf:RDF>
  </metadata>
  <g
     inkscape:label="Layer 1"
     inkscape:groupmode="layer"
     id="layer1">
    <path
       style="fill:none;fill-opacity:0.75;fill-rule:evenodd;stroke:#000000;stroke-width:1.9999994;stroke-linecap:butt;stroke-linejoin:miter;stroke-miterlimit:4;stroke-opacity:1"
       d="M 50.052067,9.6145604 L 149.99995,9.6145604 L 149.99995,114.99997 C 149.99995,114.99997 50.052067,114.99997 50.052067,114.99997 L 50.052067,9.6145604 z "
       id="path1349" />
    <path
       style="fill:none;fill-opacity:1;stroke:#000000;stroke-width:1;stroke-miterlimit:4;stroke-dashoffset:0;stroke-opacity:1"
       d="M 40,19.92856 L 50,19.92856 L 50,29.92856 L 40,29.92856 L 40,19.92856 z "
       id="rect2226" />
    <path
       style="fill:none;fill-opacity:1;stroke:#000000;stroke-width:1;stroke-miterlimit:4;stroke-dashoffset:0;stroke-opacity:1"
       d="M 40,44.928558 L 50,44.928558 L 50,54.928558 L 40,54.928558 L 40,44.928558 z "
       id="rect3101" />
    <path
       style="fill:none;fill-opacity:1;stroke:#000000;stroke-width:1;stroke-miterlimit:4;stroke-dashoffset:0;stroke-opacity:1"
       d="M 40,69.928558 L 50,69.928558 L 50,79.928558 L 40,79.928558 L 40,69.928558 z "
       id="rect3103" />
    <path
       style="fill:none;fill-opacity:1;stroke:#000000;stroke-width:1;stroke-miterlimit:4;stroke-dashoffset:0;stroke-opacity:1"
       d="M 40,94.928558 L 50,94.928558 L 50,104.92856 L 40,104.92856 L 40,94.928558 z "
       id="rect3105" />
    <path
       style="fill:none;fill-opacity:1;stroke:#000000;stroke-width:1;stroke-miterlimit:4;stroke-dashoffset:0;stroke-opacity:1"
       d="M 150.5,95 L 160.5,95 L 160.5,105 L 150.5,105 L 150.5,95 z "
       id="rect3107" />
    <path
       style="fill:none;fill-opacity:1;stroke:#000000;stroke-width:1;stroke-miterlimit:4;stroke-dashoffset:0;stroke-opacity:1"
       d="M 151,70 L 161,70 L 161,80 L 151,80 L 151,70 z "
       id="rect3109" />
    <path
       style="fill:none;fill-opacity:1;stroke:#000000;stroke-width:1;stroke-miterlimit:4;stroke-dashoffset:0;stroke-opacity:1"
       d="M 150.5,45 L 160.5,45 L 160.5,55 L 150.5,55 L 150.5,45 z "
       id="rect3111" />
    <path
       style="fill:none;fill-opacity:1;stroke:#000000;stroke-width:1;stroke-miterlimit:4;stroke-dashoffset:0;stroke-opacity:1"
       d="M 150.5,20 L 160.5,20 L 160.5,30 L 150.5,30 L 150.5,20 z "
       id="rect3125" />
    <path
       style="font-size:7.20000029px;font-style:normal;font-weight:normal;fill:#000000;fill-opacity:1;stroke:none;stroke-width:1px;stroke-linecap:butt;stroke-linejoin:miter;stroke-opacity:1;font-family:Bitstream Vera Sans"
       d="M 46.243707,27.056925 L 43.410114,27.056925 L 43.410114,26.52255 L 44.499957,26.52255 L 44.499957,23.013956 L 43.410114,23.013956 L 43.410114,22.535831 C 43.557769,22.535835 43.715972,22.524117 43.884723,22.500675 C 44.053471,22.474898 44.181206,22.43857 44.267926,22.39169 C 44.375737,22.333101 44.460112,22.259273 44.521051,22.170206 C 44.58433,22.078805 44.620658,21.95693 44.630035,21.804581 L 45.174957,21.804581 L 45.174957,26.52255 L 46.243707,26.52255 L 46.243707,27.056925"
       id="text4000" />
    <path
       style="font-size:7.20000029px;font-style:normal;font-weight:normal;fill:#000000;fill-opacity:1;stroke:none;stroke-width:1px;stroke-linecap:butt;stroke-linejoin:miter;stroke-opacity:1;font-family:Bitstream Vera Sans"
       d="M 46.598779,52.1726 L 43.055029,52.1726 L 43.055029,51.437834 C 43.301122,51.226898 43.547216,51.01596 43.793311,50.805022 C 44.041747,50.594086 44.272606,50.38432 44.485889,50.175725 C 44.935886,49.73979 45.244089,49.394087 45.410498,49.138615 C 45.576901,48.880806 45.660104,48.603072 45.660108,48.305412 C 45.660104,48.033541 45.56987,47.821432 45.389404,47.669084 C 45.211277,47.514401 44.961668,47.437057 44.640576,47.437053 C 44.427293,47.437057 44.196434,47.474557 43.947998,47.549553 C 43.699559,47.624557 43.456981,47.739401 43.220264,47.894084 L 43.185107,47.894084 L 43.185107,47.155803 C 43.351513,47.073777 43.572997,46.998777 43.849561,46.930803 C 44.128465,46.862839 44.397996,46.828855 44.658154,46.82885 C 45.19487,46.828855 45.615573,46.958933 45.920264,47.219084 C 46.224948,47.476901 46.377291,47.827291 46.377295,48.270256 C 46.377291,48.469478 46.35151,48.655806 46.299951,48.82924 C 46.250729,49.000337 46.176901,49.163228 46.078467,49.317912 C 45.987057,49.463227 45.879245,49.606196 45.755029,49.746818 C 45.633151,49.887446 45.484323,50.043305 45.308545,50.214397 C 45.057761,50.460492 44.798777,50.699554 44.531592,50.931584 C 44.264403,51.161273 44.014793,51.374554 43.782764,51.571428 L 46.598779,51.571428 L 46.598779,52.1726"
       id="text4004" />
    <path
       style="font-size:7.20000029px;font-style:normal;font-weight:normal;fill:#000000;fill-opacity:1;stroke:none;stroke-width:1px;stroke-linecap:butt;stroke-linejoin:miter;stroke-opacity:1;font-family:Bitstream Vera Sans"
       d="M 46.1646,74.667361 C 46.277096,74.768145 46.369674,74.894707 46.442334,75.047049 C 46.514986,75.199395 46.551314,75.396269 46.551319,75.637674 C 46.551314,75.876738 46.507955,76.095878 46.42124,76.295096 C 46.334518,76.494315 46.212643,76.667753 46.055615,76.815408 C 45.879831,76.979471 45.672409,77.101346 45.43335,77.181033 C 45.196628,77.258377 44.936472,77.297049 44.652881,77.297049 C 44.362254,77.297049 44.076317,77.261893 43.795068,77.19158 C 43.513817,77.123612 43.282958,77.048612 43.10249,76.96658 L 43.10249,76.231815 L 43.155225,76.231815 C 43.354443,76.363065 43.588817,76.47205 43.85835,76.558768 C 44.127879,76.645487 44.388035,76.688846 44.638818,76.688846 C 44.786472,76.688846 44.943504,76.664237 45.109912,76.615018 C 45.276316,76.5658 45.411081,76.493143 45.514209,76.397049 C 45.622019,76.293925 45.701706,76.180253 45.753272,76.056033 C 45.807175,75.931816 45.834128,75.774785 45.834131,75.58494 C 45.834128,75.397441 45.803659,75.242754 45.742725,75.120877 C 45.684128,74.99666 45.602097,74.899395 45.496631,74.82908 C 45.391159,74.756426 45.263425,74.707208 45.113428,74.681424 C 44.963425,74.653301 44.801707,74.639239 44.628272,74.639236 L 44.311865,74.639236 L 44.311865,74.055643 L 44.557959,74.055643 C 44.914207,74.055646 45.1978,73.981818 45.40874,73.834158 C 45.622019,73.684162 45.728659,73.466193 45.728662,73.180252 C 45.728659,73.053694 45.701706,72.943537 45.647803,72.849783 C 45.593894,72.753694 45.518894,72.675178 45.422803,72.614236 C 45.322019,72.553303 45.214206,72.511116 45.099365,72.487674 C 44.984519,72.464241 44.854441,72.452522 44.709131,72.452518 C 44.486473,72.452522 44.249754,72.492366 43.998975,72.572049 C 43.748192,72.651741 43.511474,72.764241 43.288818,72.909549 L 43.253662,72.909549 L 43.253662,72.174783 C 43.420067,72.092757 43.641552,72.017757 43.918115,71.949783 C 44.19702,71.879476 44.466551,71.84432 44.726709,71.844314 C 44.982175,71.84432 45.207175,71.867757 45.401709,71.914627 C 45.596237,71.961507 45.772018,72.036507 45.929053,72.139627 C 46.097799,72.252132 46.225534,72.388069 46.312256,72.547439 C 46.398971,72.706819 46.44233,72.893147 46.442334,73.106424 C 46.44233,73.397053 46.339205,73.651349 46.132959,73.869314 C 45.929049,74.084943 45.687643,74.22088 45.40874,74.277127 L 45.40874,74.326346 C 45.521237,74.345099 45.650143,74.384942 45.795459,74.445877 C 45.940768,74.504473 46.063815,74.578301 46.1646,74.667361"
       id="text4008" />
    <path
       style="font-size:7.20000029px;font-style:normal;font-weight:normal;fill:#000000;fill-opacity:1;stroke:none;stroke-width:1px;stroke-linecap:butt;stroke-linejoin:miter;stroke-opacity:1;font-family:Bitstream Vera Sans"
       d="M 46.806201,100.785 L 46.029248,100.785 L 46.029248,102.25805 L 45.354248,102.25805 L 45.354248,100.785 L 42.847607,100.785 L 42.847607,99.976408 L 45.382373,97.023283 L 46.029248,97.023283 L 46.029248,100.2225 L 46.806201,100.2225 L 46.806201,100.785 M 45.354248,100.2225 L 45.354248,97.860002 L 43.325732,100.2225 L 45.354248,100.2225"
       id="text4012" />
    <path
       style="font-size:7.20000029px;font-style:normal;font-weight:normal;fill:#000000;fill-opacity:1;stroke:none;stroke-width:1px;stroke-linecap:butt;stroke-linejoin:miter;stroke-opacity:1;font-family:Bitstream Vera Sans"
       d="M 157.03198,100.68205 C 157.03197,100.9258 156.98744,101.159 156.89839,101.38166 C 156.80932,101.60431 156.68745,101.79181 156.53276,101.94416 C 156.36401,102.10822 156.16244,102.23478 155.92807,102.32384 C 155.69604,102.41056 155.42651,102.45392 155.11948,102.45392 C 154.83354,102.45392 154.55815,102.42345 154.29331,102.36252 C 154.02846,102.30392 153.80463,102.23244 153.62182,102.14806 L 153.62182,101.40627 L 153.67104,101.40627 C 153.86323,101.52814 154.08823,101.63244 154.34604,101.71916 C 154.60385,101.80353 154.85698,101.84572 155.10542,101.84572 C 155.27182,101.84572 155.43237,101.82228 155.58706,101.77541 C 155.74409,101.72853 155.88354,101.6465 156.00542,101.52931 C 156.10854,101.42853 156.18588,101.30783 156.23745,101.1672 C 156.29135,101.02658 156.3183,100.86369 156.31831,100.67853 C 156.3183,100.49807 156.28666,100.34572 156.22339,100.2215 C 156.16244,100.09728 156.0769,99.99768 155.96675,99.92267 C 155.84487,99.83361 155.69604,99.7715 155.52026,99.73634 C 155.34682,99.69885 155.15229,99.6801 154.93667,99.68009 C 154.73041,99.6801 154.5312,99.69416 154.33901,99.72228 C 154.14917,99.75041 153.9851,99.77853 153.84682,99.80666 L 153.84682,97.11017 L 156.99682,97.11017 L 156.99682,97.72541 L 154.52534,97.72541 L 154.52534,99.11759 C 154.62612,99.10822 154.72924,99.10119 154.83471,99.0965 C 154.94018,99.09182 155.03159,99.08947 155.10893,99.08947 C 155.39252,99.08947 155.64096,99.11408 155.85424,99.1633 C 156.06752,99.21018 156.26323,99.29455 156.44135,99.41642 C 156.62885,99.54533 156.77416,99.71174 156.87729,99.91564 C 156.98041,100.11955 157.03197,100.37502 157.03198,100.68205"
       id="text4016" />
    <path
       style="font-size:7.20000029px;font-style:normal;font-weight:normal;fill:#000000;fill-opacity:1;stroke:none;stroke-width:1px;stroke-linecap:butt;stroke-linejoin:miter;stroke-opacity:1;font-family:Bitstream Vera Sans"
       d="M 157.67965,75.76611 C 157.67964,76.29814 157.50386,76.73291 157.1523,77.07041 C 156.80308,77.40556 156.37418,77.57314 155.86559,77.57314 C 155.60777,77.57314 155.3734,77.5333 155.16246,77.45361 C 154.95152,77.37392 154.76519,77.25556 154.60348,77.09853 C 154.40191,76.904 154.24605,76.64619 154.1359,76.32509 C 154.02809,76.004 153.97418,75.61728 153.97418,75.16494 C 153.97418,74.70088 154.0234,74.28955 154.12184,73.93095 C 154.22262,73.57236 154.38199,73.25361 154.59996,72.9747 C 154.80621,72.70986 155.07222,72.50361 155.39801,72.35595 C 155.72379,72.20596 156.10347,72.13096 156.53707,72.13095 C 156.67535,72.13096 156.79136,72.13682 156.88512,72.14853 C 156.97886,72.16025 157.07378,72.18135 157.16988,72.21181 L 157.16988,72.8833 L 157.13473,72.8833 C 157.0691,72.84814 156.96949,72.81533 156.8359,72.78486 C 156.70465,72.75205 156.56988,72.73564 156.4316,72.73564 C 155.92769,72.73564 155.52574,72.89385 155.22574,73.21025 C 154.92574,73.52432 154.75113,73.94971 154.70191,74.48642 C 154.89879,74.36689 155.09215,74.27666 155.28199,74.21572 C 155.47418,74.15244 155.69566,74.1208 155.94644,74.1208 C 156.1691,74.1208 156.3648,74.14189 156.53355,74.18408 C 156.70465,74.22392 156.87925,74.30596 157.05738,74.43017 C 157.26363,74.57314 157.41832,74.75361 157.52145,74.97158 C 157.62691,75.18955 157.67964,75.45439 157.67965,75.76611 M 156.96598,75.79423 C 156.96597,75.57627 156.93316,75.3958 156.86754,75.25283 C 156.80425,75.10986 156.69879,74.98564 156.55113,74.88017 C 156.44332,74.80517 156.32379,74.75595 156.19254,74.73251 C 156.06129,74.70908 155.92418,74.69736 155.78121,74.69736 C 155.58199,74.69736 155.39683,74.7208 155.22574,74.76767 C 155.05465,74.81455 154.87886,74.8872 154.6984,74.98564 C 154.69371,75.0372 154.69019,75.0876 154.68785,75.13681 C 154.68551,75.18369 154.68433,75.24345 154.68434,75.31611 C 154.68433,75.68642 154.72183,75.97939 154.79684,76.19501 C 154.87418,76.4083 154.97965,76.57705 155.11324,76.70126 C 155.22105,76.80439 155.33707,76.88056 155.46129,76.92978 C 155.58785,76.97666 155.72496,77.00009 155.87262,77.00009 C 156.21246,77.00009 156.47965,76.89697 156.67418,76.69072 C 156.86871,76.48213 156.96597,76.1833 156.96598,75.79423"
       id="text4020" />
    <path
       style="font-size:7.20000029px;font-style:normal;font-weight:normal;fill:#000000;fill-opacity:1;stroke:none;stroke-width:1px;stroke-linecap:butt;stroke-linejoin:miter;stroke-opacity:1;font-family:Bitstream Vera Sans"
       d="M 157.11812,48.08858 L 154.74859,52.53937 L 153.99625,52.53937 L 156.51695,47.91983 L 153.5357,47.91983 L 153.5357,47.3046 L 157.11812,47.3046 L 157.11812,48.08858"
       id="text4024" />
    <path
       style="font-size:7.19999981px;font-style:normal;font-weight:normal;fill:#000000;fill-opacity:1;stroke:none;stroke-width:1px;stroke-linecap:butt;stroke-linejoin:miter;stroke-opacity:1;font-family:Bitstream Vera Sans"
       d="M 157.51459,26.0245 C 157.51458,26.47685 157.33763,26.85302 156.98373,27.15302 C 156.63216,27.45302 156.18919,27.60302 155.65482,27.60302 C 155.08763,27.60302 154.63529,27.45654 154.29779,27.16357 C 153.96263,26.8706 153.79506,26.4956 153.79506,26.03857 C 153.79506,25.74794 153.87943,25.48544 154.04818,25.25107 C 154.21693,25.01435 154.45482,24.82685 154.76185,24.68857 L 154.76185,24.66747 C 154.4806,24.51748 154.27201,24.35341 154.13607,24.17529 C 154.00248,23.99716 153.93568,23.77451 153.93568,23.50732 C 153.93568,23.11357 154.0974,22.78545 154.42084,22.52294 C 154.74427,22.26045 155.1556,22.1292 155.65482,22.12919 C 156.17748,22.1292 156.59466,22.25459 156.90638,22.50536 C 157.2181,22.75615 157.37396,23.0749 157.37396,23.46161 C 157.37396,23.69834 157.30013,23.93154 157.15248,24.16122 C 157.00482,24.38857 156.78802,24.56669 156.50209,24.6956 L 156.50209,24.71669 C 156.83021,24.85732 157.08099,25.03076 157.25443,25.237 C 157.42786,25.44326 157.51458,25.70576 157.51459,26.0245 M 156.68138,23.46864 C 156.68138,23.21787 156.58412,23.01865 156.38959,22.87099 C 156.1974,22.72099 155.9513,22.64599 155.65131,22.64599 C 155.35599,22.64599 155.11341,22.71631 154.92357,22.85693 C 154.73607,22.99756 154.64232,23.1874 154.64232,23.42646 C 154.64232,23.59521 154.6892,23.7417 154.78295,23.86591 C 154.87904,23.98779 155.02318,24.09677 155.21537,24.19286 C 155.30209,24.23505 155.4263,24.29013 155.58802,24.3581 C 155.75208,24.42607 155.91146,24.48232 156.06615,24.52685 C 156.29818,24.37216 156.45872,24.21162 156.54779,24.04521 C 156.63685,23.8788 156.68138,23.68662 156.68138,23.46864 M 156.79037,26.0913 C 156.79037,25.87568 156.74232,25.70341 156.64623,25.5745 C 156.55247,25.44326 156.36732,25.31201 156.09076,25.18075 C 155.9806,25.12919 155.8599,25.08115 155.72865,25.03661 C 155.5974,24.99208 155.42279,24.92998 155.20482,24.85029 C 154.99388,24.96513 154.82396,25.12099 154.69506,25.31786 C 154.56849,25.51474 154.50521,25.7374 154.50521,25.98583 C 154.50521,26.30224 154.6142,26.56357 154.83217,26.76982 C 155.05013,26.97607 155.32669,27.07919 155.66185,27.07919 C 156.00404,27.07919 156.27708,26.9913 156.48099,26.81552 C 156.68724,26.63974 156.79037,26.39833 156.79037,26.0913"
       id="text4028" />
    <path
       style="fill:none;fill-opacity:0.75;fill-rule:evenodd;stroke:#000000;stroke-width:1px;stroke-linecap:butt;stroke-linejoin:miter;stroke-opacity:1"
       d="M 89.5,10 L 89.5,15 C 89.5,15 89.5,25 99.5,25 C 109.5,25 109.5,15 109.5,15 L 109.5,10 L 89.5,10 z "
       id="path13108" />
  </g>
</svg>
