<?xml version="1.0" encoding="utf-8"?><svg version="1.1" id="Layer_1" xmlns="http://www.w3.org/2000/svg" xmlns:xlink="http://www.w3.org/1999/xlink" x="0px" y="0px" viewBox="0 0 122.88 98.08" style="enable-background:new 0 0 122.88 98.08" xml:space="preserve"><g><path d="M13.78,13.25V3.84C13.78,1.72,15.5,0,17.62,0s3.84,1.72,3.84,3.84v9.41h9.73V3.84c0-2.12,1.72-3.84,3.84-3.84 c2.12,0,3.84,1.72,3.84,3.84v9.41h9.73V3.84c0-2.12,1.72-3.84,3.84-3.84c2.12,0,3.84,1.72,3.84,3.84v9.41h9.73V3.84 c0-2.12,1.72-3.84,3.84-3.84c2.12,0,3.84,1.72,3.84,3.84v9.41h9.73V3.84c0-2.12,1.72-3.84,3.84-3.84c2.12,0,3.84,1.72,3.84,3.84 v9.41h9.73V3.84c0-2.12,1.72-3.84,3.84-3.84c2.12,0,3.84,1.72,3.84,3.84v9.41h8.6c1.59,0,3.03,0.65,4.07,1.69 c1.04,1.04,1.69,2.48,1.69,4.07v60.66c0,1.57-0.65,3.01-1.69,4.06l0.01,0.01c-1.04,1.04-2.48,1.69-4.07,1.69h-8.6v8.82 c0,2.12-1.72,3.84-3.84,3.84c-2.12,0-3.84-1.72-3.84-3.84v-8.82h-9.73v8.82c0,2.12-1.72,3.84-3.84,3.84 c-2.12,0-3.84-1.72-3.84-3.84v-8.82H73.7v8.82c0,2.12-1.72,3.84-3.84,3.84c-2.12,0-3.84-1.72-3.84-3.84v-8.82h-9.73v8.82 c0,2.12-1.72,3.84-3.84,3.84c-2.12,0-3.84-1.72-3.84-3.84v-8.82h-9.73v8.82c0,2.12-1.72,3.84-3.84,3.84 c-2.12,0-3.84-1.72-3.84-3.84v-8.82h-9.73v8.82c0,2.12-1.72,3.84-3.84,3.84s-3.84-1.72-3.84-3.84v-8.82H5.75 c-1.59,0-3.03-0.65-4.07-1.69C0.65,82.69,0,81.25,0,79.67V19.01c0-1.59,0.65-3.03,1.69-4.07c0.12-0.12,0.25-0.23,0.38-0.33 c1.01-0.84,2.29-1.35,3.69-1.35H13.78L13.78,13.25z M30.76,62.77l-5.2-9.85v9.85h-8.61V35.31h12.8c2.22,0,4.12,0.39,5.7,1.18 c1.58,0.79,2.76,1.86,3.55,3.22c0.79,1.36,1.18,2.89,1.18,4.6c0,1.84-0.51,3.47-1.53,4.89c-1.02,1.42-2.49,2.44-4.4,3.06 l5.97,10.51H30.76L30.76,62.77z M25.56,47.18h3.41c0.83,0,1.45-0.19,1.86-0.56c0.41-0.38,0.62-0.96,0.62-1.77 c0-0.72-0.21-1.29-0.64-1.71c-0.43-0.41-1.04-0.62-1.84-0.62h-3.41V47.18L25.56,47.18z M60.55,58.62h-9.15l-1.36,4.15H41 l10.05-27.46h9.93l10.01,27.46h-9.08L60.55,58.62L60.55,58.62z M58.45,52.15l-2.48-7.64l-2.48,7.64H58.45L58.45,52.15z M105.93,35.31v27.46h-8.57V49.08l-4.23,13.69h-7.37l-4.23-13.69v13.69h-8.61V35.31h10.55l6.05,16.49l5.9-16.49H105.93 L105.93,35.31z M115.2,20.93H7.68v56.81H115.2V20.93L115.2,20.93z"/></g></svg>