<?xml version="1.0" encoding="iso-8859-1"?>
<!-- Generator: Adobe Illustrator 16.0.0, SVG Export Plug-In . SVG Version: 6.00 Build 0)  -->
<!DOCTYPE svg PUBLIC "-//W3C//DTD SVG 1.1//EN" "http://www.w3.org/Graphics/SVG/1.1/DTD/svg11.dtd">
<svg version="1.1" id="Capa_1" xmlns="http://www.w3.org/2000/svg" xmlns:xlink="http://www.w3.org/1999/xlink" x="0px" y="0px"
	 width="292.445px" height="292.445px" viewBox="0 0 292.445 292.445" style="enable-background:new 0 0 292.445 292.445;"
	 xml:space="preserve">
<g>
	<path d="M243.428,0c-19.857,0-36.503,13.189-42.171,31.204h-53.125c-7.311,0-13.219,5.915-13.219,13.22l-0.018,59.979
		c-18.005,5.669-31.186,22.332-31.186,42.181c0,19.846,13.19,36.516,31.186,42.184v46.021l-43.706,0.024
		c-5.662-18.015-22.313-31.2-42.181-31.2c-24.493,0-44.42,19.924-44.42,44.423c0,24.487,19.921,44.411,44.42,44.411
		c19.867,0,36.519-13.187,42.181-31.188l56.949-0.013c7.302,0,13.217-5.932,13.217-13.229v-59.261
		c18.015-5.656,31.195-22.326,31.195-42.178c0-19.849-13.187-36.512-31.195-42.181l0.013-46.75h39.89
		c5.668,18.002,22.325,31.186,42.171,31.186c24.506,0,44.43-19.924,44.43-44.414C287.857,19.927,267.934,0,243.428,0z M49.002,266
		c-9.908,0-17.969-8.058-17.969-17.954c0-9.907,8.061-17.99,17.969-17.99c9.911,0,17.972,8.083,17.972,17.99
		C66.974,257.942,58.913,266,49.002,266z M148.126,164.562c-9.911,0-17.972-8.064-17.972-17.973c0-9.911,8.062-17.966,17.972-17.966
		c9.908,0,17.967,8.062,17.967,17.966C166.093,156.497,158.034,164.562,148.126,164.562z M243.428,62.393
		c-9.901,0-17.966-8.062-17.966-17.96c0-9.908,8.064-17.976,17.966-17.976c9.914,0,17.984,8.067,17.984,17.976
		C261.412,54.332,253.342,62.393,243.428,62.393z"/>
</g>
<g>
</g>
<g>
</g>
<g>
</g>
<g>
</g>
<g>
</g>
<g>
</g>
<g>
</g>
<g>
</g>
<g>
</g>
<g>
</g>
<g>
</g>
<g>
</g>
<g>
</g>
<g>
</g>
<g>
</g>
</svg>
